<svg viewBox="0 0 1200 200" xmlns="http://www.w3.org/2000/svg">
  <defs>
    <linearGradient id="pinkGradient" x1="0%" y1="0%" x2="100%" y2="100%">
      <stop offset="0%" style="stop-color:#ff2d78;stop-opacity:1" />
      <stop offset="50%" style="stop-color:#ffa8c5;stop-opacity:1" />
      <stop offset="100%" style="stop-color:#ffc5dd;stop-opacity:1" />
    </linearGradient>
  </defs>

  <!-- Background -->
  <rect width="1200" height="200" fill="url(#pinkGradient)"/>

  <!-- Pixelated wave pattern bottom -->
  <g fill="rgba(255, 255, 255, 0.2)">
    <!-- Row 1 -->
    <rect x="0" y="150" width="20" height="20"/>
    <rect x="40" y="150" width="20" height="20"/>
    <rect x="80" y="150" width="20" height="20"/>
    <rect x="120" y="150" width="20" height="20"/>
    <rect x="160" y="150" width="20" height="20"/>
    <rect x="200" y="150" width="20" height="20"/>
    <rect x="240" y="150" width="20" height="20"/>
    <rect x="280" y="150" width="20" height="20"/>
    <rect x="320" y="150" width="20" height="20"/>
    <rect x="360" y="150" width="20" height="20"/>
    <rect x="400" y="150" width="20" height="20"/>
    <rect x="440" y="150" width="20" height="20"/>
    <rect x="480" y="150" width="20" height="20"/>
    <rect x="520" y="150" width="20" height="20"/>
    <rect x="560" y="150" width="20" height="20"/>
    <rect x="600" y="150" width="20" height="20"/>
    <rect x="640" y="150" width="20" height="20"/>
    <rect x="680" y="150" width="20" height="20"/>
    <rect x="720" y="150" width="20" height="20"/>
    <rect x="760" y="150" width="20" height="20"/>
    <rect x="800" y="150" width="20" height="20"/>
    <rect x="840" y="150" width="20" height="20"/>
    <rect x="880" y="150" width="20" height="20"/>
    <rect x="920" y="150" width="20" height="20"/>
    <rect x="960" y="150" width="20" height="20"/>
    <rect x="1000" y="150" width="20" height="20"/>
    <rect x="1040" y="150" width="20" height="20"/>
    <rect x="1080" y="150" width="20" height="20"/>
    <rect x="1120" y="150" width="20" height="20"/>
    <rect x="1160" y="150" width="20" height="20"/>
  </g>

  <!-- Row 2 - offset wave -->
  <g fill="rgba(255, 255, 255, 0.15)">
    <rect x="20" y="170" width="20" height="20"/>
    <rect x="60" y="170" width="20" height="20"/>
    <rect x="100" y="170" width="20" height="20"/>
    <rect x="140" y="170" width="20" height="20"/>
    <rect x="180" y="170" width="20" height="20"/>
    <rect x="220" y="170" width="20" height="20"/>
    <rect x="260" y="170" width="20" height="20"/>
    <rect x="300" y="170" width="20" height="20"/>
    <rect x="340" y="170" width="20" height="20"/>
    <rect x="380" y="170" width="20" height="20"/>
    <rect x="420" y="170" width="20" height="20"/>
    <rect x="460" y="170" width="20" height="20"/>
    <rect x="500" y="170" width="20" height="20"/>
    <rect x="540" y="170" width="20" height="20"/>
    <rect x="580" y="170" width="20" height="20"/>
    <rect x="620" y="170" width="20" height="20"/>
    <rect x="660" y="170" width="20" height="20"/>
    <rect x="700" y="170" width="20" height="20"/>
    <rect x="740" y="170" width="20" height="20"/>
    <rect x="780" y="170" width="20" height="20"/>
    <rect x="820" y="170" width="20" height="20"/>
    <rect x="860" y="170" width="20" height="20"/>
    <rect x="900" y="170" width="20" height="20"/>
    <rect x="940" y="170" width="20" height="20"/>
    <rect x="980" y="170" width="20" height="20"/>
    <rect x="1020" y="170" width="20" height="20"/>
    <rect x="1060" y="170" width="20" height="20"/>
    <rect x="1100" y="170" width="20" height="20"/>
  </g>

  <!-- Decorative flowery pixels -->
  <g fill="rgba(255, 255, 255, 0.3)">
    <!-- Left flowers -->
    <rect x="60" y="30" width="15" height="15"/>
    <rect x="45" y="45" width="15" height="15"/>
    <rect x="75" y="45" width="15" height="15"/>
    
    <!-- Right flowers -->
    <rect x="1125" y="40" width="15" height="15"/>
    <rect x="1110" y="55" width="15" height="15"/>
    <rect x="1140" y="55" width="15" height="15"/>
  </g>

  <!-- Main text -->
  <text x="600" y="110" font-size="72" font-weight="bold" text-anchor="middle" fill="white" font-family="Arial, sans-serif" style="text-shadow: 2px 2px 4px rgba(0,0,0,0.2)">
    Malak Yousof
  </text>
</svg>